G04 EAGLE Gerber RS-274X export*
G75*
%MOMM*%
%FSLAX34Y34*%
%LPD*%
%INSilkscreen Top*%
%IPPOS*%
%AMOC8*
5,1,8,0,0,1.08239X$1,22.5*%
G01*
%ADD10C,0.203200*%

G36*
X20325Y45391D02*
X20325Y45391D01*
X20425Y45398D01*
X20465Y45413D01*
X20508Y45419D01*
X20598Y45462D01*
X20691Y45496D01*
X20726Y45522D01*
X20765Y45540D01*
X20840Y45606D01*
X20920Y45665D01*
X20943Y45696D01*
X20979Y45727D01*
X21076Y45879D01*
X21118Y45936D01*
X23118Y49936D01*
X23121Y49944D01*
X23126Y49951D01*
X23166Y50079D01*
X23208Y50206D01*
X23209Y50214D01*
X23211Y50222D01*
X23215Y50357D01*
X23220Y50490D01*
X23218Y50498D01*
X23219Y50506D01*
X23185Y50636D01*
X23153Y50766D01*
X23149Y50773D01*
X23147Y50781D01*
X23079Y50896D01*
X23012Y51013D01*
X23006Y51019D01*
X23002Y51026D01*
X22904Y51118D01*
X22808Y51211D01*
X22800Y51214D01*
X22794Y51220D01*
X22675Y51281D01*
X22557Y51344D01*
X22549Y51346D01*
X22541Y51350D01*
X22489Y51358D01*
X22279Y51403D01*
X22241Y51400D01*
X22210Y51405D01*
X18210Y51405D01*
X18202Y51404D01*
X18193Y51405D01*
X18061Y51384D01*
X17929Y51365D01*
X17921Y51362D01*
X17912Y51361D01*
X17791Y51304D01*
X17669Y51249D01*
X17663Y51244D01*
X17655Y51240D01*
X17554Y51152D01*
X17452Y51066D01*
X17447Y51058D01*
X17441Y51053D01*
X17369Y50940D01*
X17295Y50829D01*
X17292Y50821D01*
X17287Y50814D01*
X17249Y50685D01*
X17209Y50558D01*
X17209Y50549D01*
X17206Y50541D01*
X17205Y50407D01*
X17201Y50274D01*
X17204Y50265D01*
X17204Y50257D01*
X17219Y50206D01*
X17273Y49999D01*
X17293Y49966D01*
X17302Y49936D01*
X19302Y45936D01*
X19359Y45854D01*
X19408Y45767D01*
X19439Y45737D01*
X19463Y45702D01*
X19541Y45639D01*
X19612Y45570D01*
X19650Y45549D01*
X19683Y45522D01*
X19775Y45483D01*
X19863Y45436D01*
X19905Y45427D01*
X19945Y45410D01*
X20044Y45398D01*
X20141Y45377D01*
X20184Y45380D01*
X20227Y45375D01*
X20325Y45391D01*
G37*
D10*
X3210Y53390D02*
X6210Y53390D01*
X6210Y50390D01*
X3210Y50390D01*
X3210Y43390D01*
X182210Y43390D02*
X182210Y50390D01*
X179210Y50390D01*
X179210Y53390D01*
X182210Y53390D01*
X179210Y53390D02*
X6210Y53390D01*
X3210Y43390D02*
X182210Y43390D01*
X3210Y87390D02*
X3210Y97390D01*
X15210Y97390D01*
X182210Y97390D02*
X182210Y87390D01*
X182210Y97390D02*
X170210Y97390D01*
X3210Y57390D02*
X3210Y53390D01*
X182210Y53390D02*
X182210Y57390D01*
M02*
