G04 EAGLE Gerber RS-274X export*
G75*
%MOMM*%
%FSLAX34Y34*%
%LPD*%
%INSoldermask Top*%
%IPPOS*%
%AMOC8*
5,1,8,0,0,1.08239X$1,22.5*%
G01*
%ADD10C,1.503200*%
%ADD11R,0.400000X1.400000*%
%ADD12R,1.900000X2.350000*%


D10*
X10160Y119380D03*
X20320Y265430D03*
X30480Y279400D03*
X40640Y293370D03*
X50800Y307340D03*
X67310Y307340D03*
X83820Y307340D03*
X100330Y307340D03*
X116840Y307340D03*
X133350Y307340D03*
X143510Y293370D03*
X10160Y135890D03*
X153670Y279400D03*
X163830Y265430D03*
X173990Y251460D03*
X173990Y234950D03*
X173990Y218440D03*
X10160Y152400D03*
X10160Y168910D03*
X10160Y185420D03*
X10160Y201930D03*
X10160Y218440D03*
X10160Y234950D03*
X10160Y251460D03*
D11*
X20210Y104890D03*
X25210Y104890D03*
X30210Y104890D03*
X35210Y104890D03*
X40210Y104890D03*
X45210Y104890D03*
X50210Y104890D03*
X55210Y104890D03*
X60210Y104890D03*
X65210Y104890D03*
X70210Y104890D03*
X75210Y104890D03*
X80210Y104890D03*
X85210Y104890D03*
X90210Y104890D03*
X95210Y104890D03*
X100210Y104890D03*
X105210Y104890D03*
X110210Y104890D03*
X115210Y104890D03*
X120210Y104890D03*
X125210Y104890D03*
X130210Y104890D03*
X135210Y104890D03*
X140210Y104890D03*
X145210Y104890D03*
X150210Y104890D03*
X155210Y104890D03*
X160210Y104890D03*
X165210Y104890D03*
D12*
X184210Y72390D03*
X1210Y72390D03*
D10*
X173990Y201930D03*
X173990Y185420D03*
X173990Y168910D03*
X173990Y152400D03*
X173990Y135890D03*
X173990Y119380D03*
M02*
