M48
;GenerationSoftware,Autodesk,EAGLE,9.6.2*%
;CreationDate,2025-01-23T16:35:50Z*%
FMAT,2
ICI,OFF
METRIC,TZ,000.000
T2C0.750
T1C1.016
%
G90
M71
T1
X22606Y2591
X9906Y2591
X7366Y2591
X4826Y2591
X2286Y2591
X14986Y2591
X17526Y2591
X20066Y2591
X4826Y38125
X7366Y38125
X9906Y38125
X12446Y38125
X14986Y38125
X17526Y38125
X20066Y38125
X22606Y38125
X25146Y38125
X27686Y38125
X30226Y38125
X32766Y38125
X35306Y38125
X37846Y38125
X25146Y2591
X12446Y2591
X27686Y2591
X40386Y2565
X37846Y2565
X35306Y2565
X32766Y2565
X30226Y2565
T2
X13081Y11328
X14097Y25933
X15113Y27330
X16129Y28727
X17145Y30124
X18796Y30124
X20447Y30124
X23749Y30124
X25400Y30124
X26416Y28727
X13081Y12979
X27432Y27330
X28448Y25933
X29464Y24536
X29464Y22885
X29464Y21234
X13081Y14630
X13081Y16281
X13081Y17932
X13081Y19583
X13081Y21234
X13081Y22885
X29464Y19583
X29464Y17932
X29464Y16281
X29464Y14630
X29464Y12979
X29464Y11328
X22098Y30124
X13081Y24536
M30