G04 EAGLE Gerber RS-274X export*
G75*
%MOMM*%
%FSLAX34Y34*%
%LPD*%
%INSoldermask Bottom*%
%IPPOS*%
%AMOC8*
5,1,8,0,0,1.08239X$1,22.5*%
G01*
%ADD10C,1.553200*%
%ADD11P,2.199416X8X202.500000*%
%ADD12P,2.199416X8X292.500000*%
%ADD13P,2.199416X8X112.500000*%


D10*
X130810Y113284D03*
X140970Y259334D03*
X151130Y273304D03*
X161290Y287274D03*
X171450Y301244D03*
X187960Y301244D03*
X204470Y301244D03*
X220980Y301244D03*
X237490Y301244D03*
X254000Y301244D03*
X264160Y287274D03*
X130810Y129794D03*
X274320Y273304D03*
X284480Y259334D03*
X294640Y245364D03*
X294640Y228854D03*
X294640Y212344D03*
X130810Y146304D03*
X130810Y162814D03*
X130810Y179324D03*
X130810Y195834D03*
X130810Y212344D03*
X130810Y228854D03*
X130810Y245364D03*
X294640Y195834D03*
X294640Y179324D03*
X294640Y162814D03*
X294640Y146304D03*
X294640Y129794D03*
X294640Y113284D03*
D11*
X124460Y25908D03*
X99060Y25908D03*
D12*
X73660Y25908D03*
X48260Y25908D03*
X22860Y25908D03*
D13*
X149860Y25908D03*
X175260Y25908D03*
X200660Y25908D03*
X48260Y381254D03*
X73660Y381254D03*
X99060Y381254D03*
X124460Y381254D03*
X149860Y381254D03*
X175260Y381254D03*
X200660Y381254D03*
X226060Y381254D03*
X251460Y381254D03*
X276860Y381254D03*
X302260Y381254D03*
X327660Y381254D03*
X353060Y381254D03*
X378460Y381254D03*
X226060Y25908D03*
X251460Y25908D03*
X276860Y25908D03*
D12*
X403860Y25654D03*
X378460Y25654D03*
X353060Y25654D03*
X327660Y25654D03*
X302260Y25654D03*
M02*
